<svg width="800" height="300" viewBox="0 0 800 300" fill="none" xmlns="http://www.w3.org/2000/svg">
<path d="M334.353 141.838H360.9C369.262 141.838 375.595 134.775 375.595 125.52C375.595 116.021 368.369 112.53 364.067 112.287V111.8C368.207 111.313 373.646 108.228 373.646 99.7845C373.646 90.9353 367.801 85.1712 358.465 85.1712H334.353V141.838ZM342.228 116.103H358.546C363.904 116.103 367.152 118.863 367.152 124.14V126.981C367.152 132.258 363.904 135.019 358.546 135.019H342.228V116.103ZM342.228 91.9907H357.247C362.199 91.9907 365.203 94.6698 365.203 99.3785V102.058C365.203 106.766 362.199 109.445 357.247 109.445H342.228V91.9907Z" fill="white"/>
<path d="M398.994 141.838V135.424H392.987V81.7615H385.436V134.125C385.436 138.753 388.116 141.838 393.311 141.838H398.994Z" fill="white"/>
<path d="M422.564 142.812C434.011 142.812 441.723 134.207 441.723 120.811C441.723 107.416 434.011 98.8102 422.564 98.8102C411.117 98.8102 403.404 107.416 403.404 120.811C403.404 134.207 411.117 142.812 422.564 142.812ZM422.564 136.317C415.988 136.317 411.442 132.177 411.442 123.977V117.645C411.442 109.445 415.988 105.305 422.564 105.305C429.14 105.305 433.686 109.445 433.686 117.645V123.977C433.686 132.177 429.14 136.317 422.564 136.317Z" fill="white"/>
<path d="M466.284 142.812C474.321 142.812 479.841 138.915 482.52 132.583L477 129.173C474.889 133.72 471.398 136.317 466.284 136.317C459.058 136.317 455.405 131.365 455.405 124.465V117.158C455.405 110.257 459.058 105.305 466.284 105.305C471.155 105.305 474.564 107.822 475.945 111.962L482.196 108.877C479.76 102.869 474.564 98.8102 466.284 98.8102C454.268 98.8102 447.368 107.335 447.368 120.811C447.368 134.288 454.268 142.812 466.284 142.812Z" fill="white"/>
<path d="M489.736 141.838H497.286V127.306L503.294 120.892L516.446 141.838H525.539L508.652 116.021L523.59 99.7845H514.66L503.7 111.8L497.692 119.188H497.286V81.7615H489.736V141.838Z" fill="white"/>
<path d="M546.123 142.812C554.161 142.812 559.681 138.915 562.36 132.583L556.84 129.173C554.729 133.72 551.238 136.317 546.123 136.317C538.898 136.317 535.245 131.365 535.245 124.465V117.158C535.245 110.257 538.898 105.305 546.123 105.305C550.994 105.305 554.404 107.822 555.784 111.962L562.036 108.877C559.6 102.869 554.404 98.8102 546.123 98.8102C534.108 98.8102 527.207 107.335 527.207 120.811C527.207 134.288 534.108 142.812 546.123 142.812Z" fill="white"/>
<path d="M569.576 141.838H577.126V113.018C577.126 107.903 581.916 105.386 586.869 105.386C592.795 105.386 595.718 109.039 595.718 116.103V141.838H603.268V114.966C603.268 104.737 597.991 98.8102 589.385 98.8102C583.053 98.8102 579.481 102.058 577.532 106.685H577.126V81.7615H569.576V141.838Z" fill="white"/>
<path d="M649.4 141.838V135.424H644.692V113.261C644.692 104.168 638.684 98.8102 628.211 98.8102C620.417 98.8102 615.465 102.464 612.948 107.01L617.495 111.15C619.687 107.578 622.853 105.143 627.805 105.143C634.138 105.143 637.141 108.309 637.141 113.911V117.726H629.185C617.17 117.726 611.244 122.11 611.244 130.229C611.244 137.941 616.358 142.812 625.126 142.812C631.134 142.812 635.599 140.052 637.304 134.856H637.71C638.278 138.915 640.47 141.838 645.097 141.838H649.4ZM626.831 136.723C622.122 136.723 619.118 134.531 619.118 130.635V129.011C619.118 125.114 622.203 123.003 629.104 123.003H637.141V129.498C637.141 133.72 632.757 136.723 626.831 136.723Z" fill="white"/>
<path d="M660.605 91.0165C663.771 91.0165 665.151 89.3117 665.151 86.8761V85.7395C665.151 83.304 663.771 81.5991 660.605 81.5991C657.439 81.5991 656.059 83.304 656.059 85.7395V86.8761C656.059 89.3117 657.439 91.0165 660.605 91.0165ZM656.789 141.838H664.339V99.7845H656.789V141.838Z" fill="white"/>
<path d="M683.567 141.838V113.018C683.567 107.903 688.357 105.386 693.309 105.386C699.235 105.386 702.158 109.039 702.158 116.103V141.838H709.708V114.966C709.708 104.737 704.431 98.8102 695.826 98.8102C689.493 98.8102 685.921 102.058 683.973 106.685H683.567V99.7845H676.017V141.838H683.567Z" fill="white"/>
<path d="M354.893 224.282C364.472 224.282 371.373 219.329 375.026 211.211L368.694 207.395C366.583 213.24 361.875 217.218 354.893 217.218C345.638 217.218 340.036 210.318 340.036 199.277V190.671C340.036 179.63 345.638 172.729 354.893 172.729C361.712 172.729 366.096 176.383 368.207 181.984L374.702 178.25C371.048 170.131 364.472 165.666 354.893 165.666C340.442 165.666 331.593 176.058 331.593 194.974C331.593 213.89 340.442 224.282 354.893 224.282Z" fill="white"/>
<path d="M417.888 223.307V216.894H413.179V194.73C413.179 185.638 407.172 180.28 396.699 180.28C388.905 180.28 383.953 183.933 381.436 188.479L385.983 192.62C388.175 189.047 391.341 186.612 396.293 186.612C402.625 186.612 405.629 189.778 405.629 195.38V199.196H397.673C385.658 199.196 379.731 203.579 379.731 211.698C379.731 219.41 384.846 224.282 393.614 224.282C399.622 224.282 404.087 221.521 405.792 216.325H406.198C406.766 220.385 408.958 223.307 413.585 223.307H417.888ZM395.319 218.193C390.61 218.193 387.606 216.001 387.606 212.104V210.48C387.606 206.583 390.691 204.473 397.592 204.473H405.629V210.967C405.629 215.189 401.245 218.193 395.319 218.193Z" fill="white"/>
<path d="M425.277 239.544H432.827V216.407H433.152C435.1 221.602 439.484 224.282 445.249 224.282C455.803 224.282 462.135 215.92 462.135 202.281C462.135 188.642 455.803 180.28 445.249 180.28C439.484 180.28 435.1 182.959 433.152 188.154H432.827V181.254H425.277V239.544ZM443.057 217.706C437.374 217.706 432.827 214.458 432.827 209.993V194.568C432.827 190.103 437.374 186.855 443.057 186.855C449.795 186.855 454.098 191.645 454.098 198.708V205.853C454.098 212.916 449.795 217.706 443.057 217.706Z" fill="white"/>
<path d="M474.959 172.486C478.125 172.486 479.505 170.781 479.505 168.345V167.209C479.505 164.773 478.125 163.068 474.959 163.068C471.793 163.068 470.413 164.773 470.413 167.209V168.345C470.413 170.781 471.793 172.486 474.959 172.486ZM471.143 223.307H478.693V181.254H471.143V223.307Z" fill="white"/>
<path d="M508.637 223.307V216.894H500.275V187.667H509.287V181.254H500.275V169.644H493.456V177.357C493.456 180.198 492.563 181.254 489.721 181.254H485.987V187.667H492.725V215.351C492.725 220.222 495.485 223.307 500.681 223.307H508.637Z" fill="white"/>
<path d="M552.673 223.307V216.894H547.965V194.73C547.965 185.638 541.957 180.28 531.484 180.28C523.69 180.28 518.738 183.933 516.222 188.479L520.768 192.62C522.96 189.047 526.126 186.612 531.078 186.612C537.411 186.612 540.414 189.778 540.414 195.38V199.196H532.458C520.443 199.196 514.517 203.579 514.517 211.698C514.517 219.41 519.631 224.282 528.399 224.282C534.407 224.282 538.872 221.521 540.577 216.325H540.983C541.551 220.385 543.743 223.307 548.371 223.307H552.673ZM530.104 218.193C525.395 218.193 522.392 216.001 522.392 212.104V210.48C522.392 206.583 525.477 204.473 532.377 204.473H540.414V210.967C540.414 215.189 536.031 218.193 530.104 218.193Z" fill="white"/>
<path d="M573.62 223.307V216.894H567.613V163.231H560.062V215.595C560.062 220.222 562.741 223.307 567.937 223.307H573.62Z" fill="white"/>
<g clip-path="url(#clip0_1093_2130)">
<path d="M173.679 205.891C172.38 206.569 170.794 206.053 170.145 204.755L162.925 190.801C162.246 189.502 162.762 187.917 164.061 187.277L176.334 180.926C177.757 180.181 178.215 178.337 177.241 177.038L163.383 158.195C162.409 156.896 160.537 156.772 159.4 157.899L149.687 167.746C148.684 168.777 147.004 168.777 145.963 167.746L134.788 156.705C133.757 155.702 133.757 154.021 134.788 152.98L145.829 141.806C146.832 140.775 148.513 140.775 149.554 141.806L159.4 151.519C160.537 152.656 162.447 152.493 163.383 151.194L177.05 132.16C177.986 130.861 177.537 129.018 176.114 128.273L163.746 122.055C162.447 121.406 161.931 119.82 162.581 118.521L169.639 104.472C170.288 103.174 171.874 102.658 173.172 103.307L187.221 110.365C188.52 111.015 189.036 112.6 188.387 113.899L182.169 126.267C181.453 127.728 182.169 129.438 183.726 129.954L206.036 137.04C207.555 137.527 209.178 136.524 209.436 134.939L211.509 121.272C211.738 119.849 213.066 118.846 214.489 119.066L230.028 121.425C231.451 121.654 232.453 122.982 232.234 124.405L229.875 139.944C229.646 141.367 228.318 142.37 226.895 142.15L213.228 140.077C211.643 139.819 210.181 141.08 210.219 142.704L210.353 166.112C210.353 167.736 211.814 168.959 213.4 168.672L227.029 166.437C228.452 166.208 229.817 167.182 230.037 168.605L232.597 184.116C232.826 185.539 231.852 186.904 230.429 187.124L214.918 189.684C213.495 189.913 212.13 188.939 211.91 187.516L209.675 173.887C209.417 172.301 207.794 171.327 206.275 171.814L184.06 179.168C182.542 179.684 181.825 181.432 182.542 182.855L188.883 195.127C189.561 196.426 189.046 198.012 187.747 198.661L173.698 205.882L173.679 205.891Z" fill="white"/>
<path d="M237.947 205.307L248.109 205.555C249.561 205.594 250.755 204.447 250.793 202.996L251.041 192.834C251.079 191.382 249.933 190.179 248.482 190.15L238.32 189.902C236.868 189.864 235.674 191.01 235.636 192.461L235.388 202.623C235.349 204.075 236.496 205.269 237.947 205.307Z" fill="white"/>
<path d="M251.204 214.161L249.265 220.139C248.931 221.18 249.494 222.288 250.535 222.632L256.505 224.58C257.546 224.915 258.654 224.351 258.997 223.31L260.936 217.341C261.27 216.3 260.707 215.192 259.666 214.848L253.697 212.9C252.656 212.566 251.548 213.129 251.204 214.17V214.161Z" fill="white"/>
<path d="M155.209 217.646L158.112 227.388C158.523 228.773 159.984 229.566 161.379 229.155L171.12 226.251C172.505 225.841 173.298 224.379 172.887 222.985L169.984 213.243C169.573 211.859 168.112 211.066 166.718 211.477L156.976 214.38C155.591 214.791 154.798 216.252 155.209 217.646Z" fill="white"/>
<path d="M150.988 232.831H144.704C143.615 232.831 142.727 233.719 142.727 234.808V241.092C142.727 242.181 143.615 243.069 144.704 243.069H150.988C152.077 243.069 152.965 242.181 152.965 241.092V234.808C152.965 233.719 152.077 232.831 150.988 232.831Z" fill="white"/>
<path d="M117.933 142.76L109.566 148.538C108.373 149.36 108.077 150.993 108.898 152.187L114.676 160.553C115.497 161.747 117.131 162.043 118.324 161.222L126.691 155.444C127.885 154.622 128.181 152.989 127.359 151.795L121.581 143.429C120.76 142.235 119.127 141.939 117.933 142.76Z" fill="white"/>
<path d="M102.06 143.39L100.121 137.411C99.7869 136.37 98.6694 135.806 97.6284 136.141L91.6497 138.079C90.6087 138.414 90.0452 139.531 90.3795 140.572L92.3182 146.551C92.6525 147.592 93.7699 148.155 94.811 147.821L100.79 145.882C101.831 145.548 102.394 144.431 102.06 143.39Z" fill="white"/>
<path d="M177.632 84.1763L169.552 78.0065C168.397 77.1279 166.754 77.3475 165.875 78.4936L159.706 86.5735C158.827 87.7291 159.047 89.3718 160.193 90.2505L168.273 96.4202C169.428 97.2989 171.071 97.0792 171.95 95.9331L178.119 87.8533C178.998 86.6976 178.778 85.0549 177.623 84.1763H177.632Z" fill="white"/>
<path d="M172.102 69.2867L177.183 65.6001C178.061 64.9602 178.262 63.7282 177.622 62.84L173.936 57.759C173.296 56.8804 172.064 56.6798 171.175 57.3197L166.094 61.0063C165.216 61.6462 165.015 62.8782 165.655 63.7664L169.342 68.8474C169.982 69.726 171.214 69.9266 172.102 69.2867Z" fill="white"/>
<path d="M251.812 122.837L255.183 113.248C255.661 111.883 254.945 110.383 253.579 109.906L243.99 106.534C242.624 106.057 241.125 106.773 240.647 108.139L237.276 117.728C236.798 119.093 237.515 120.593 238.88 121.07L248.469 124.442C249.835 124.919 251.334 124.203 251.812 122.837Z" fill="white"/>
<path d="M264.306 112.961L269.387 116.657C270.266 117.297 271.507 117.106 272.147 116.218L275.843 111.137C276.483 110.258 276.292 109.017 275.404 108.377L270.323 104.681C269.444 104.041 268.203 104.232 267.563 105.12L263.867 110.201C263.227 111.08 263.418 112.321 264.306 112.961Z" fill="white"/>
</g>
<defs>
<clipPath id="clip0_1093_2130">
<rect width="185.923" height="186.124" fill="white" transform="translate(90.292 56.9385)"/>
</clipPath>
</defs>
</svg>
